<?xml version="1.0" encoding="UTF-8" standalone="no"?>
<!-- Created with Inkscape (http://www.inkscape.org/) -->

<svg
   width="130"
   height="180"
   viewBox="0 0 34.395833 47.625"
   version="1.1"
   id="svg1"
   inkscape:version="1.4 (e7c3feb100, 2024-10-09)"
   sodipodi:docname="Sopds-ng NoCover.svg"
   inkscape:export-filename="Sopds-ng NoCover.png"
   inkscape:export-xdpi="96"
   inkscape:export-ydpi="96"
   xmlns:inkscape="http://www.inkscape.org/namespaces/inkscape"
   xmlns:sodipodi="http://sodipodi.sourceforge.net/DTD/sodipodi-0.dtd"
   xmlns="http://www.w3.org/2000/svg"
   xmlns:svg="http://www.w3.org/2000/svg">
  <sodipodi:namedview
     id="namedview1"
     pagecolor="#ffffff"
     bordercolor="#666666"
     borderopacity="1.0"
     inkscape:showpageshadow="2"
     inkscape:pageopacity="0.0"
     inkscape:pagecheckerboard="0"
     inkscape:deskcolor="#d1d1d1"
     inkscape:document-units="mm"
     inkscape:zoom="4"
     inkscape:cx="97.125"
     inkscape:cy="98.875"
     inkscape:window-width="1916"
     inkscape:window-height="1036"
     inkscape:window-x="0"
     inkscape:window-y="42"
     inkscape:window-maximized="1"
     inkscape:current-layer="layer1" />
  <defs
     id="defs1" />
  <g
     inkscape:label="Слой 1"
     inkscape:groupmode="layer"
     id="layer1">
    <path
       style="display:inline;fill:#e7662b;fill-opacity:1;stroke:#e7662b;stroke-width:0.0799774;stroke-opacity:1"
       d="m 15.908883,38.418063 c -0.09047,-0.05556 -0.225319,-0.163324 -0.442212,-0.35338 -0.241494,-0.211616 -0.650315,-0.496328 -1.089384,-0.758672 -0.399376,-0.238627 -0.895424,-0.482401 -1.625143,-0.798643 -0.186702,-0.08091 -0.42786,-0.16966 -0.563042,-0.207203 -0.04223,-0.01173 -0.157395,-0.05078 -0.255928,-0.08679 -0.09853,-0.036 -0.194684,-0.06571 -0.213671,-0.066 -0.01899,-3.2e-4 -0.07081,-0.01665 -0.115167,-0.03634 -0.04436,-0.01969 -0.126714,-0.04764 -0.183018,-0.06212 -0.0563,-0.01448 -0.165713,-0.04543 -0.243131,-0.06879 -0.07742,-0.02336 -0.192586,-0.05389 -0.255928,-0.06786 -0.06334,-0.01396 -0.172752,-0.04134 -0.243132,-0.06084 -0.07038,-0.0195 -0.208581,-0.05296 -0.307114,-0.07435 -0.09853,-0.02139 -0.2828,-0.06211 -0.4094836,-0.09049 -0.126685,-0.02838 -0.420362,-0.08662 -0.652617,-0.129421 -0.232255,-0.04281 -0.474107,-0.08874 -0.537449,-0.102077 -0.06334,-0.01334 -0.224577,-0.03551 -0.358299,-0.04928 -0.133722,-0.01377 -0.346783,-0.03643 -0.473467,-0.05036 -0.582146,-0.06401 -0.803743,-0.08207 -1.305233,-0.106407 -1.194235,-0.05795 -1.739457,-0.07214 -2.820096,-0.07342 -0.792888,-9.37e-4 -1.136167,-0.0097 -1.148352,-0.02945 -0.0096,-0.01547 -0.01888,-4.293368 -0.02071,-9.506445 -0.0024,-7.023743 0.0042,-9.485823 0.02564,-9.507284 0.03949,-0.03949 1.617219,-0.03483 1.665114,0.0049 0.02727,0.02263 0.03454,1.549172 0.0398,8.361441 l 0.0064,8.333753 1.074898,0.01474 c 1.082897,0.01485 1.710028,0.04445 2.392927,0.112936 0.204103,0.02047 0.451713,0.04369 0.550245,0.0516 0.09853,0.0079 0.242492,0.02539 0.31991,0.03885 0.07742,0.01346 0.244412,0.03731 0.371096,0.053 0.470588,0.0583 0.9406126,0.135497 1.3052326,0.214378 0.09853,0.02132 0.24825,0.05115 0.332706,0.06629 0.181905,0.03262 0.74113,0.165129 0.917882,0.217491 0.06848,0.02029 0.149095,0.03729 0.17915,0.03779 0.03005,4.84e-4 0.08344,0.01737 0.118626,0.03748 0.03519,0.02012 0.0895,0.03698 0.120698,0.03748 0.03119,4.84e-4 0.09454,0.01678 0.14076,0.03618 0.04622,0.0194 0.147388,0.05311 0.224806,0.07491 0.48766,0.137286 1.209065,0.388458 1.416076,0.493036 0.03985,0.02013 0.08418,0.0366 0.0985,0.0366 0.01433,0 0.06234,0.01634 0.106696,0.03632 0.04435,0.01998 0.159188,0.0718 0.255182,0.115167 0.096,0.04337 0.180522,0.07885 0.187836,0.07885 0.02312,0 1.03723,0.507454 1.224382,0.612675 0.09853,0.0554 0.223974,0.125144 0.278759,0.154993 0.16711,0.09105 0.821609,0.518391 0.860121,0.561598 0.04563,0.0512 0.252132,0.201813 0.295436,0.215482 0.03916,0.01236 0.103493,-0.02289 0.255928,-0.140201 0.660956,-0.508684 1.56916,-1.02302 2.660533,-1.506719 0.235365,-0.104314 0.667219,-0.28172 0.685785,-0.28172 0.01269,0 0.05937,-0.01626 0.103724,-0.03614 0.04435,-0.01987 0.155505,-0.06052 0.246999,-0.09032 0.09149,-0.0298 0.189387,-0.06435 0.217539,-0.07677 0.02815,-0.01242 0.137561,-0.0479 0.243132,-0.07884 0.10557,-0.03094 0.209598,-0.06504 0.231174,-0.07578 0.02158,-0.01074 0.07916,-0.02812 0.127965,-0.03862 0.08382,-0.01803 0.43241,-0.121153 0.6936,-0.205191 0.06523,-0.02099 0.149485,-0.03816 0.18723,-0.03816 0.03775,0 0.09367,-0.0134 0.124283,-0.02979 0.03061,-0.01638 0.130625,-0.04408 0.222254,-0.06155 0.09163,-0.01747 0.24146,-0.0505 0.332954,-0.07339 0.09149,-0.02289 0.252729,-0.05745 0.358299,-0.0768 0.10557,-0.01935 0.210184,-0.04251 0.232475,-0.05148 0.02229,-0.009 0.120183,-0.02668 0.217538,-0.03936 0.09736,-0.01268 0.246111,-0.03541 0.330568,-0.05051 0.402362,-0.07193 0.952687,-0.151289 1.177268,-0.169766 0.07038,-0.0058 0.300716,-0.02758 0.511856,-0.04841 0.77066,-0.07603 1.304269,-0.100468 2.495338,-0.114248 l 1.215658,-0.01407 0.0128,-8.35605 0.0128,-8.35605 0.821943,-0.0068 c 0.670262,-0.0055 0.827305,-3.2e-4 0.850995,0.02826 0.02158,0.02601 0.0274,2.475021 0.02262,9.52727 l -0.0064,9.492265 -1.676329,0.01532 c -0.92198,0.0084 -1.84908,0.02873 -2.06022,0.04513 -0.211141,0.01639 -0.556644,0.04147 -0.767784,0.05573 -0.699322,0.04722 -1.488392,0.134118 -1.863179,0.205195 -0.06999,0.01327 -0.176824,0.02413 -0.237414,0.02413 -0.06059,0 -0.116461,0.01019 -0.124156,0.02264 -0.0077,0.01245 -0.06884,0.03016 -0.135873,0.03934 -0.207014,0.02837 -1.003572,0.20495 -1.273556,0.282324 -0.07038,0.02017 -0.174031,0.04774 -0.230336,0.06126 -0.0563,0.01352 -0.223297,0.06105 -0.371095,0.10561 -0.695844,0.20979 -0.777785,0.239488 -1.701922,0.616824 -0.26075,0.106468 -0.921837,0.441623 -1.228454,0.622796 -0.470273,0.277873 -1.22702,0.827606 -1.382011,1.003951 -0.01408,0.01602 -0.08118,0.07072 -0.149119,0.121566 l -0.123526,0.09245 -1.2073,-1.6e-4 c -1.206244,-1.6e-4 -1.207381,-1.6e-4 -1.300847,-0.05758 z m 0.426254,-4.159952 c -0.04223,-0.02406 -0.174671,-0.10847 -0.294318,-0.187564 -0.449406,-0.297088 -1.228978,-0.689998 -2.071744,-1.044173 -0.203403,-0.08548 -0.385895,-0.155419 -0.405537,-0.155419 -0.01964,0 -0.06628,-0.01629 -0.103643,-0.0362 -0.03736,-0.01991 -0.14279,-0.06153 -0.234284,-0.09249 -0.09149,-0.03096 -0.202644,-0.07225 -0.246999,-0.09177 -0.04436,-0.01951 -0.0932,-0.03547 -0.108544,-0.03547 -0.01534,0 -0.111495,-0.02796 -0.213671,-0.06213 -0.24938,-0.0834 -0.758925,-0.236893 -0.83839,-0.252551 -0.03519,-0.0069 -0.156116,-0.03778 -0.268725,-0.06854 -0.112608,-0.03076 -0.331427,-0.08362 -0.486263,-0.117473 -0.154836,-0.03385 -0.352512,-0.079 -0.439278,-0.100337 -0.08677,-0.02134 -0.188296,-0.03879 -0.22562,-0.03879 -0.03732,0 -0.09054,-0.01214 -0.118256,-0.02697 -0.05034,-0.02694 -0.269695,-0.06829 -0.7524136,-0.141834 -1.262338,-0.192326 -2.021092,-0.261279 -3.173508,-0.2884 l -0.691005,-0.01626 -0.0065,-4.443556 c -0.0072,-4.919108 -0.02088,-4.532435 0.158787,-4.477639 0.04995,0.01523 0.128244,0.03809 0.173991,0.05078 0.199606,0.05539 0.562502,0.169474 0.786979,0.247393 0.133722,0.04642 0.346782,0.120219 0.473467,0.164004 0.734546,0.253875 2.092722,0.908149 2.7717586,1.33524 0.13094,0.08236 0.243532,0.14974 0.250205,0.14974 0.01105,0 0.460573,0.301115 0.842549,0.564382 0.139118,0.09588 0.421327,0.31702 0.885137,0.693588 0.346537,0.281353 1.194958,1.123016 1.432849,1.421434 0.08072,0.101259 0.231375,0.285369 0.334789,0.409133 0.103415,0.123765 0.230668,0.282769 0.282786,0.353343 0.05212,0.07057 0.104262,0.139832 0.115874,0.153908 0.05131,0.0622 0.31125,0.442334 0.350013,0.511856 0.02354,0.04223 0.06827,0.118976 0.09938,0.170552 0.1717,0.284611 0.27749,0.462677 0.370902,0.624307 0.107874,0.186652 0.377071,0.727114 0.496409,0.996637 0.0374,0.08446 0.09912,0.222657 0.137162,0.307113 0.03804,0.08446 0.117881,0.300969 0.177415,0.481139 0.05954,0.180171 0.121492,0.34083 0.137683,0.357019 0.01619,0.01619 0.02944,0.04628 0.02944,0.06686 0,0.02058 0.01748,0.09602 0.03883,0.167633 0.236998,0.794729 0.364461,1.386418 0.452576,2.100859 0.05098,0.413327 0.04095,0.442551 -0.120311,0.350648 z m 1.49071,0.01405 c -0.02435,-0.06521 0.100269,-0.963275 0.173963,-1.25366 0.02049,-0.08073 0.03725,-0.171846 0.03725,-0.202493 0,-0.03065 0.01756,-0.114317 0.03902,-0.185934 0.02146,-0.07162 0.08562,-0.302965 0.142584,-0.514105 0.132643,-0.491678 0.160401,-0.583643 0.227885,-0.754988 0.03049,-0.07742 0.08968,-0.23214 0.131543,-0.343827 0.310406,-0.828238 0.844779,-1.841295 1.413697,-2.680069 0.04058,-0.05982 0.338028,-0.451905 0.424157,-0.559096 0.03959,-0.04927 0.122281,-0.154437 0.183768,-0.233712 0.310227,-0.399978 0.442778,-0.5502 0.776109,-0.879575 0.996924,-0.985096 1.413956,-1.331846 2.394025,-1.990559 0.802278,-0.539218 0.886752,-0.587761 1.81709,-1.044184 0.344862,-0.169189 0.645144,-0.317399 0.667292,-0.329356 0.02215,-0.01196 0.206416,-0.08641 0.409484,-0.165463 0.20307,-0.07905 0.388982,-0.154934 0.413139,-0.168634 0.02416,-0.0137 0.0875,-0.03556 0.14076,-0.04857 0.09242,-0.02258 0.216511,-0.06332 0.327174,-0.107408 0.222172,-0.08852 0.329072,-0.125452 0.473467,-0.163563 0.09149,-0.02415 0.218178,-0.05838 0.28152,-0.07606 0.235632,-0.06579 0.410338,-0.0983 0.428823,-0.07982 0.02093,0.02093 0.02701,8.960046 0.0061,8.98095 -0.0071,0.0071 -0.32959,0.01998 -0.716598,0.02857 -0.387008,0.0086 -0.743958,0.02101 -0.793225,0.0276 -0.04927,0.0066 -0.314151,0.02358 -0.588634,0.03777 -0.274483,0.01419 -0.563826,0.03745 -0.642986,0.0517 -0.07916,0.01425 -0.246151,0.03646 -0.371095,0.04936 -0.124944,0.0129 -0.336579,0.04214 -0.470302,0.06498 -0.133722,0.02284 -0.35254,0.05769 -0.486263,0.07745 -0.30779,0.04548 -0.58666,0.09758 -0.895748,0.167355 -0.133722,0.03018 -0.305088,0.0656 -0.380812,0.07869 -0.07572,0.0131 -0.156342,0.0336 -0.17915,0.04556 -0.02281,0.01196 -0.0933,0.03004 -0.156636,0.04019 -0.149158,0.02389 -0.559276,0.129801 -0.742192,0.191676 -0.03519,0.0119 -0.271283,0.08746 -0.524652,0.167901 -1.063631,0.33769 -1.885324,0.678814 -2.751226,1.142164 -0.283192,0.151538 -0.535796,0.293746 -0.566365,0.318846 -0.01928,0.01584 -0.07537,0.04915 -0.124641,0.07403 -0.04927,0.02488 -0.1667,0.09542 -0.260964,0.156756 -0.177808,0.115697 -0.237024,0.133996 -0.257361,0.07953 z m -0.847889,-3.4018 c -0.163032,-0.491593 -0.21835,-0.627259 -0.598259,-1.46723 -0.06366,-0.14076 -0.125102,-0.267967 -0.136528,-0.282681 -0.01143,-0.01471 -0.07264,-0.131753 -0.136041,-0.260086 -0.0634,-0.128335 -0.156077,-0.297131 -0.205956,-0.375105 -0.04988,-0.07797 -0.09069,-0.147739 -0.09069,-0.155034 0,-0.0073 -0.05758,-0.09813 -0.127964,-0.201864 -0.07038,-0.10373 -0.127964,-0.197266 -0.127964,-0.207855 0,-0.01059 -0.02387,-0.04987 -0.05304,-0.08728 -0.02917,-0.03742 -0.09539,-0.132454 -0.147159,-0.211195 -0.05176,-0.07874 -0.148633,-0.216941 -0.215265,-0.307113 -0.06663,-0.09017 -0.147248,-0.201604 -0.179149,-0.247626 -0.0319,-0.04602 -0.08679,-0.117001 -0.121984,-0.15773 -0.03519,-0.04073 -0.173391,-0.209895 -0.307113,-0.375923 -0.518674,-0.643982 -1.492916,-1.604598 -2.060221,-2.031406 -0.09853,-0.07413 -0.219458,-0.168299 -0.268724,-0.209264 -0.247863,-0.206097 -0.550572,-0.430675 -0.580508,-0.430675 -0.01855,0 -0.03372,-0.01006 -0.03372,-0.02236 0,-0.04914 -1.113573,-0.756264 -1.573957,-0.999475 -0.1126076,-0.05949 -0.2248966,-0.118795 -0.2495296,-0.131794 -0.0567,-0.02992 -0.06702,-0.03515 -0.467068,-0.236459 -0.47345,-0.23825 -0.764988,-0.367131 -1.330826,-0.588321 -0.463301,-0.181108 -0.568633,-0.219444 -0.857359,-0.312045 -0.161874,-0.05192 -0.39221,-0.126491 -0.511856,-0.165721 -0.119646,-0.03923 -0.326948,-0.09605 -0.46067,-0.126273 -0.481499,-0.108811 -0.456525,-0.09739 -0.473506,-0.216574 -0.02201,-0.154491 -0.0034,-6.713768 0.01908,-6.736275 0.01671,-0.01671 0.07561,0.0055 0.259461,0.09765 0.02649,0.01328 0.08984,0.03908 0.140761,0.05731 0.371589,0.13306 1.41871,0.64258 2.033539,0.989502 0.09627,0.05432 0.180656,0.09877 0.187518,0.09877 0.0069,0 0.121369,0.06622 0.254462,0.147159 0.133093,0.08094 0.308295,0.187467 0.389338,0.236733 0.08104,0.04927 0.204477,0.129884 0.274297,0.17915 0.139478,0.09842 0.163217,0.113691 0.309024,0.198821 0.100743,0.05882 0.271293,0.180609 0.7071606,0.504981 0.460873,0.34298 0.669671,0.503672 0.696305,0.535877 0.01474,0.01783 0.11056,0.09815 0.21293,0.1785 0.306452,0.240527 0.777619,0.684894 1.368635,1.290786 0.17947,0.183987 0.326308,0.343896 0.326308,0.355354 0,0.01146 0.06622,0.09017 0.147159,0.174907 0.163026,0.170689 0.611985,0.723842 0.749272,0.923163 0.02074,0.03011 0.11017,0.151036 0.198734,0.268725 0.376118,0.499798 0.468404,0.642528 0.965743,1.49362 0.223473,0.382426 0.270462,0.470506 0.518831,0.972526 0.246345,0.497931 0.312248,0.638173 0.312248,0.664467 0,0.0093 0.02721,0.07666 0.06047,0.149689 0.124983,0.274444 0.246647,0.578087 0.246647,0.615571 0,0.02136 0.01063,0.04541 0.02362,0.05344 0.01299,0.008 0.03173,0.05152 0.04164,0.09664 0.0099,0.04512 0.02777,0.0997 0.0397,0.121272 0.03358,0.06078 0.353497,1.045049 0.382914,1.17811 0.01089,0.04927 0.06632,0.273842 0.123176,0.499059 0.14112,0.559006 0.172516,0.701121 0.220501,0.998119 0.02274,0.140761 0.05188,0.290479 0.06474,0.332707 0.01287,0.04223 0.03557,0.184878 0.05046,0.316999 0.01488,0.132122 0.03276,0.249445 0.03973,0.260717 0.007,0.01128 0.02458,0.1155 0.03914,0.231615 0.03505,0.279566 0.05529,0.311591 0.108429,0.171615 0.03763,-0.09912 0.06208,-0.235908 0.145576,-0.814593 0.0132,-0.09149 0.03588,-0.206586 0.0504,-0.255759 0.01451,-0.04917 0.02639,-0.119831 0.02639,-0.157016 0,-0.03719 0.01653,-0.123638 0.03673,-0.192116 0.0202,-0.06848 0.06216,-0.239671 0.09325,-0.380432 0.05304,-0.240195 0.155287,-0.629959 0.24169,-0.921341 0.02087,-0.07038 0.07943,-0.271923 0.130126,-0.447874 0.0507,-0.17595 0.10729,-0.35446 0.125757,-0.396688 0.01847,-0.04223 0.05733,-0.145879 0.08636,-0.230335 0.08839,-0.257147 0.124111,-0.352797 0.181616,-0.486264 0.03032,-0.07038 0.07811,-0.197064 0.106204,-0.281521 0.05452,-0.16393 0.0945,-0.252161 0.409144,-0.903042 0.110814,-0.229229 0.20148,-0.421183 0.20148,-0.426565 0,-0.0054 0.05182,-0.09745 0.115168,-0.204584 0.06334,-0.107138 0.115167,-0.201563 0.115167,-0.209833 0,-0.0083 0.101661,-0.183569 0.225913,-0.389554 0.124253,-0.205984 0.259575,-0.437858 0.300716,-0.515277 0.04114,-0.07742 0.08056,-0.146518 0.0876,-0.153556 0.007,-0.007 0.07532,-0.104931 0.151746,-0.217539 0.319832,-0.471272 0.479075,-0.690132 0.871966,-1.198412 0.140462,-0.181715 0.456164,-0.552438 0.62627,-0.735416 0.09895,-0.106435 0.24759,-0.26767 0.33032,-0.358299 0.267959,-0.293549 0.664752,-0.692027 0.822109,-0.825602 0.08446,-0.07169 0.176591,-0.156381 0.204743,-0.188198 0.02815,-0.03182 0.144883,-0.135966 0.259404,-0.23144 0.114519,-0.09548 0.310304,-0.260305 0.435077,-0.36629 0.124772,-0.105987 0.267168,-0.220599 0.316435,-0.254696 0.04927,-0.0341 0.09533,-0.06917 0.102371,-0.07794 0.007,-0.0088 0.08765,-0.0661 0.179149,-0.127399 0.09149,-0.0613 0.229696,-0.160922 0.307114,-0.221388 0.306765,-0.239595 0.542451,-0.396086 1.087694,-0.722204 0.168913,-0.101029 0.324389,-0.194445 0.345503,-0.207591 0.02111,-0.01315 0.182349,-0.1032 0.358299,-0.200121 0.175951,-0.09692 0.400527,-0.220941 0.49906,-0.275602 0.09853,-0.05466 0.236733,-0.126755 0.307113,-0.160209 0.07038,-0.03346 0.231615,-0.11087 0.3583,-0.172031 0.126684,-0.06116 0.310952,-0.141964 0.409485,-0.179561 0.09853,-0.0376 0.230975,-0.09436 0.294317,-0.126133 0.288156,-0.144558 0.559923,-0.229188 0.601727,-0.187383 0.006,0.006 0.01204,1.500621 0.01336,3.321317 0.002,2.703533 -0.0038,3.316081 -0.03122,3.341586 -0.04584,0.04257 -0.379674,0.165812 -0.449156,0.165812 -0.03088,0 -0.105495,0.01608 -0.16581,0.03574 -0.06031,0.01966 -0.196039,0.06087 -0.301609,0.09158 -0.25858,0.07523 -0.656403,0.20821 -0.921341,0.307987 -0.119647,0.04506 -0.265447,0.09713 -0.324002,0.115705 -0.05856,0.01858 -0.173723,0.06478 -0.255928,0.102669 -0.08221,0.03789 -0.196794,0.09058 -0.25464,0.117086 -0.05785,0.02651 -0.116626,0.0482 -0.130622,0.0482 -0.01399,0 -0.139419,0.05569 -0.278718,0.123762 -0.139298,0.06807 -0.293578,0.139466 -0.342844,0.15866 -0.132614,0.05167 -1.005655,0.49658 -1.090953,0.555963 -0.04044,0.02815 -0.152537,0.09416 -0.249113,0.146691 -0.09658,0.05253 -0.195349,0.11526 -0.219494,0.139405 -0.02415,0.02415 -0.06468,0.05187 -0.09008,0.06162 -0.0254,0.0097 -0.16111,0.09524 -0.301582,0.189992 -0.140472,0.09475 -0.281089,0.189546 -0.312482,0.21066 -0.03139,0.02111 -0.106554,0.07294 -0.167025,0.115167 -0.06047,0.04223 -0.164539,0.111329 -0.231261,0.153557 -0.183559,0.116173 -0.785613,0.604842 -0.826302,0.670684 -0.01126,0.01822 -0.0326,0.03312 -0.04744,0.03312 -0.01483,0 -0.09776,0.05881 -0.184276,0.130697 -0.619204,0.51447 -1.318276,1.220949 -1.807998,1.827153 -0.05686,0.07038 -0.141734,0.174031 -0.188616,0.230335 -0.1671,0.200683 -0.581577,0.762751 -0.648507,0.879435 -0.03744,0.06528 -0.09853,0.158993 -0.135749,0.208259 -0.07185,0.0951 -0.462296,0.770316 -0.569771,0.985323 -0.03518,0.07038 -0.123681,0.243131 -0.196666,0.383892 -0.321608,0.620259 -0.565786,1.23664 -0.745181,1.881071 -0.05485,0.197015 -0.08368,0.254383 -0.128429,0.255536 -0.0084,2.4e-4 -0.08079,-0.197354 -0.160941,-0.439042 z m 0.104909,-7.232009 c -0.02234,-0.05279 -0.05373,-0.139001 -0.06974,-0.19159 -0.01601,-0.05259 -0.03979,-0.102214 -0.05284,-0.110279 -0.01305,-0.0081 -0.02373,-0.03608 -0.02373,-0.06225 0,-0.04778 -0.152642,-0.385552 -0.200298,-0.44323 -0.014,-0.01695 -0.03353,-0.074 -0.04339,-0.126785 -0.0099,-0.05278 -0.02726,-0.09597 -0.03865,-0.09597 -0.01139,0 -0.02886,-0.03712 -0.03883,-0.0825 -0.01,-0.04537 -0.04543,-0.125763 -0.07881,-0.178641 -0.03338,-0.05288 -0.06069,-0.103031 -0.06069,-0.111448 0,-0.0309 -0.190478,-0.410132 -0.294131,-0.585603 -0.0587,-0.09938 -0.114652,-0.212361 -0.124329,-0.25107 -0.0097,-0.03871 -0.02889,-0.07038 -0.0427,-0.07038 -0.01381,0 -0.0251,-0.01551 -0.0251,-0.03447 0,-0.01896 -0.02303,-0.06103 -0.05119,-0.09349 -0.02815,-0.03246 -0.05119,-0.07295 -0.05119,-0.08997 0,-0.01702 -0.03455,-0.07443 -0.07678,-0.127567 -0.04223,-0.05314 -0.07678,-0.110577 -0.07678,-0.127643 0,-0.01707 -0.03455,-0.07873 -0.07678,-0.13702 -0.04223,-0.05829 -0.07678,-0.116516 -0.07678,-0.129383 0,-0.01287 -0.03743,-0.06988 -0.08318,-0.126701 -0.04575,-0.05682 -0.140253,-0.193168 -0.210014,-0.302996 -0.131436,-0.206926 -0.411218,-0.590257 -0.463501,-0.635047 -0.01643,-0.01408 -0.05156,-0.06564 -0.07807,-0.114588 -0.02651,-0.04895 -0.117294,-0.171477 -0.20175,-0.272286 -0.08446,-0.100809 -0.182349,-0.224906 -0.217539,-0.275771 -0.03519,-0.05086 -0.08989,-0.09946 -0.121566,-0.107982 -0.03167,-0.0085 -0.05758,-0.02977 -0.05758,-0.0472 0,-0.01743 -0.02016,-0.05585 -0.04479,-0.08538 -0.02463,-0.02952 -0.07358,-0.09136 -0.108769,-0.137412 -0.03519,-0.04606 -0.08126,-0.102016 -0.102371,-0.124357 -0.02111,-0.02234 -0.141268,-0.155174 -0.267007,-0.295182 -0.242996,-0.270572 -1.089619,-1.12055 -1.150697,-1.155258 -0.01998,-0.01135 -0.118113,-0.0955 -0.218069,-0.186998 -0.09996,-0.09149 -0.227916,-0.206661 -0.284355,-0.255928 -0.05644,-0.04927 -0.150432,-0.132762 -0.208874,-0.185547 -0.05844,-0.05279 -0.115886,-0.09597 -0.127654,-0.09597 -0.01177,0 -0.07282,-0.04895 -0.135671,-0.10877 -0.186734,-0.177739 -0.225492,-0.209251 -0.306901,-0.24953 -0.04268,-0.02111 -0.117587,-0.07582 -0.166472,-0.121565 -0.04888,-0.04575 -0.09832,-0.08318 -0.109849,-0.08318 -0.01153,0 -0.03488,-0.01143 -0.05188,-0.02541 -0.195413,-0.160646 -0.426665,-0.32462 -0.55549,-0.393885 -0.04931,-0.02651 -0.15299,-0.0977 -0.230408,-0.158195 -0.07742,-0.0605 -0.1711687,-0.117478 -0.2083357,-0.126622 -0.03717,-0.0091 -0.09978,-0.05025 -0.13915,-0.09133 -0.03937,-0.04109 -0.08529,-0.07471 -0.102043,-0.07471 -0.01676,0 -0.04581,-0.01849 -0.06457,-0.04109 -0.01876,-0.0226 -0.09214,-0.06738 -0.163089,-0.09952 -0.07094,-0.03214 -0.168655,-0.08851 -0.217137,-0.125264 -0.04848,-0.03676 -0.103186,-0.06683 -0.121566,-0.06683 -0.01838,0 -0.0336,-0.0086 -0.03381,-0.01919 -2.16e-4,-0.01056 -0.06068,-0.04799 -0.134362,-0.08318 -0.07368,-0.03519 -0.139723,-0.0707 -0.146761,-0.07891 -0.007,-0.0082 -0.07614,-0.04469 -0.153556,-0.08106 -0.07742,-0.03637 -0.18107,-0.09342 -0.230336,-0.126772 -0.04927,-0.03335 -0.17595,-0.104997 -0.281521,-0.159216 -0.10557,-0.05422 -0.195784,-0.108503 -0.200476,-0.120628 -0.0047,-0.01212 -0.0279,-0.02205 -0.05157,-0.02205 -0.02367,0 -0.08601,-0.02303 -0.138535,-0.05119 -0.05253,-0.02815 -0.108276,-0.05119 -0.123891,-0.05119 -0.02451,0 -0.06711,-0.02972 -0.218911,-0.152697 -0.01964,-0.01591 -0.02279,-0.05405 -0.0094,-0.113501 0.01111,-0.04925 0.01548,-0.09425 0.0097,-0.100008 -0.0092,-0.0092 -0.0055,-3.256897 0.0041,-3.5878825 0.002,-0.07038 0.01167,-0.152208 0.02139,-0.181839 0.0097,-0.02963 0.0075,-0.08146 -0.005,-0.115168 -0.04752,-0.128438 0.07083,-0.232912 0.152446,-0.134574 0.01912,0.02304 0.08099,0.06351 0.137496,0.08994 0.0565,0.02643 0.148801,0.07633 0.205105,0.110873 0.0563,0.03455 0.148438,0.08685 0.204742,0.116223 0.0563,0.02938 0.148439,0.08694 0.204743,0.127912 0.0563,0.04098 0.116767,0.07489 0.134362,0.07535 0.0176,4.54e-4 0.03199,0.01159 0.03199,0.02472 0,0.01313 0.02282,0.03111 0.05071,0.03996 0.09189,0.02917 0.333186,0.1987425 0.333186,0.2341575 0,0.0213 0.02886,0.03472 0.07465,0.03472 0.04106,0 0.07848,0.0086 0.08318,0.01919 0.0047,0.01056 0.07744,0.06526 0.161652,0.121566 0.19205,0.128398 0.211929,0.143338 0.263758,0.198234 0.0232,0.02457 0.07997,0.05177 0.126163,0.06043 0.04619,0.0087 0.08398,0.02702 0.08398,0.0408 0,0.03106 0.09159,0.110967 0.186932,0.163103 0.08285,0.0453 0.180368,0.123179 0.2732837,0.218242 0.03579,0.03662 0.103865,0.08844 0.151274,0.115168 0.151981,0.08567 0.167653,0.0975 0.310316,0.234337 0.07716,0.07401 0.186362,0.166112 0.242666,0.20467 0.05631,0.03856 0.10813,0.07741 0.115168,0.08633 0.007,0.0089 0.06462,0.0583 0.127964,0.109716 0.336197,0.272923 1.12909,1.048114 1.63794,1.601373 0.147798,0.160697 0.288266,0.312278 0.31215,0.336845 0.02389,0.02457 0.06161,0.07983 0.08383,0.122808 0.02222,0.04298 0.05148,0.07814 0.06502,0.07814 0.01354,0 0.05267,0.04319 0.08696,0.09597 0.03429,0.05279 0.103533,0.139802 0.153879,0.19337 0.05035,0.05357 0.0923,0.105394 0.09323,0.115168 0.0018,0.01892 0.08901,0.136254 0.28622,0.385124 0.06686,0.08438 0.121566,0.161957 0.121566,0.172402 0,0.01044 0.01698,0.03723 0.03773,0.05953 0.110389,0.118611 0.192609,0.230523 0.192609,0.262164 0,0.01965 0.02345,0.0558 0.05211,0.08034 0.06039,0.0517 0.331777,0.460822 0.331777,0.500149 0,0.01457 0.03551,0.06463 0.07891,0.111243 0.0434,0.04662 0.08944,0.10779 0.102311,0.135942 0.01287,0.02815 0.03355,0.06846 0.04595,0.08957 0.0124,0.02111 0.04104,0.08158 0.06363,0.134362 0.02259,0.05279 0.05854,0.09597 0.07988,0.09597 0.02134,0 0.0388,0.02221 0.0388,0.04936 0,0.02715 0.0147,0.06458 0.03266,0.08318 0.03092,0.03201 0.08733,0.137832 0.342108,0.641649 0.02313,0.04575 0.05666,0.111968 0.07451,0.147158 0.01785,0.03519 0.06315,0.127324 0.100658,0.204743 0.03751,0.07742 0.08816,0.17531 0.112553,0.217538 0.02439,0.04223 0.09426,0.191946 0.155273,0.332707 0.14225,0.3282 0.253845,0.576694 0.284308,0.633075 0.01321,0.02444 0.02401,0.06507 0.02401,0.09028 0,0.02521 0.01647,0.06936 0.03661,0.09811 0.03536,0.05049 0.145023,0.338232 0.198942,0.52202 0.01443,0.04919 0.04219,0.112213 0.0617,0.140056 0.0195,0.02784 0.03587,0.07973 0.03637,0.115311 4.83e-4,0.03558 0.01737,0.09348 0.03748,0.128668 0.02012,0.03519 0.03698,0.111968 0.03748,0.170618 4.83e-4,0.05865 0.01421,0.111071 0.03047,0.11649 0.03151,0.0105 0.119369,0.254372 0.122462,0.339916 0.001,0.02815 0.01717,0.08054 0.0359,0.116428 0.01873,0.03588 0.0416,0.120336 0.05083,0.187671 0.0092,0.06733 0.02546,0.135867 0.03608,0.152295 0.02793,0.04324 0.08226,0.284568 0.108403,0.481548 0.01242,0.09359 0.0344,0.19148 0.04884,0.217539 0.01444,0.02606 0.03756,0.110722 0.05138,0.188141 0.01382,0.07742 0.03676,0.186827 0.05098,0.243131 0.01422,0.0563 0.04437,0.211781 0.06701,0.345503 0.06616,0.39072 0.08306,0.440359 0.139647,0.410075 0.05023,-0.02688 0.103475,-0.216168 0.103475,-0.367827 0,-0.04576 0.0123,-0.0955 0.02734,-0.110539 0.01504,-0.01504 0.03741,-0.112355 0.04972,-0.216259 0.01231,-0.103905 0.04007,-0.263776 0.0617,-0.35527 0.02163,-0.09149 0.03956,-0.193498 0.03985,-0.226675 3.93e-4,-0.04403 0.01131,-0.05618 0.04046,-0.045 0.03381,0.01297 0.03739,-0.0016 0.02336,-0.09512 -0.01101,-0.07341 -0.0039,-0.140719 0.02117,-0.200737 0.02075,-0.04966 0.04579,-0.138009 0.05564,-0.196325 0.0099,-0.05832 0.02776,-0.112115 0.0398,-0.119555 0.01204,-0.0074 0.02929,-0.06796 0.03832,-0.134496 0.009,-0.06653 0.03274,-0.157261 0.05267,-0.201616 0.01993,-0.04435 0.03623,-0.114925 0.03623,-0.156821 0,-0.0419 0.01728,-0.09051 0.03839,-0.108035 0.02111,-0.01752 0.03839,-0.05364 0.03839,-0.08026 0,-0.02662 0.01066,-0.0684 0.02369,-0.09284 0.03348,-0.0628 0.105916,-0.285982 0.122407,-0.377147 0.0076,-0.04223 0.02463,-0.09028 0.03775,-0.106784 0.02783,-0.035 0.173152,-0.426492 0.193106,-0.520239 0.0075,-0.03519 0.02849,-0.08126 0.04667,-0.102372 0.01818,-0.02111 0.0413,-0.07294 0.05137,-0.115167 0.01007,-0.04223 0.02692,-0.08829 0.03743,-0.102371 0.01051,-0.01408 0.02694,-0.06223 0.03651,-0.107001 0.0096,-0.04478 0.03393,-0.09513 0.05414,-0.111903 0.02021,-0.01677 0.03674,-0.06939 0.03674,-0.116936 0,-0.04754 0.01035,-0.08644 0.02301,-0.08644 0.02469,0 0.130548,-0.188798 0.130548,-0.232831 0,-0.01458 0.02879,-0.06426 0.06398,-0.110397 0.03519,-0.04614 0.06398,-0.09356 0.06398,-0.10538 0,-0.01182 0.02204,-0.06832 0.04899,-0.125548 0.02694,-0.05723 0.07341,-0.161637 0.103269,-0.232017 0.02986,-0.07038 0.06702,-0.150558 0.08258,-0.178174 0.01556,-0.02761 0.05306,-0.09671 0.08332,-0.153557 0.03026,-0.05684 0.08623,-0.149208 0.124362,-0.20526 0.03814,-0.05605 0.06934,-0.121595 0.06934,-0.145649 0,-0.02405 0.01119,-0.05065 0.02487,-0.0591 0.01367,-0.0085 0.04817,-0.06384 0.07665,-0.123076 0.073,-0.151819 0.31265,-0.542373 0.375679,-0.612235 0.02904,-0.03218 0.08588,-0.125158 0.126324,-0.20661 0.04044,-0.08145 0.157288,-0.258982 0.259658,-0.394512 0.102369,-0.135529 0.186126,-0.260383 0.186126,-0.277451 0,-0.01707 0.01758,-0.04563 0.03907,-0.06346 0.02149,-0.01784 0.07212,-0.08139 0.112504,-0.141231 0.04039,-0.05984 0.0921,-0.130154 0.114922,-0.156252 0.110617,-0.1265 0.19417,-0.23525 0.19417,-0.252723 0,-0.01777 0.187317,-0.252831 0.344356,-0.43213 0.03582,-0.0409 0.06513,-0.08344 0.06513,-0.09453 0,-0.01109 0.06622,-0.0885 0.147158,-0.172015 0.08094,-0.08352 0.198984,-0.213483 0.262327,-0.288816 0.06334,-0.07533 0.139406,-0.161978 0.169032,-0.192545 0.02963,-0.03057 0.06135,-0.07509 0.07051,-0.09895 0.0092,-0.02386 0.03962,-0.04938 0.0677,-0.05673 0.02808,-0.0073 0.05106,-0.02164 0.05106,-0.03177 0,-0.01013 0.115168,-0.137929 0.255928,-0.284003 0.14076,-0.146074 0.255928,-0.280404 0.255928,-0.298511 0,-0.01811 0.01519,-0.03292 0.03377,-0.03292 0.03066,0 0.175694,-0.125945 0.432573,-0.37564 0.05239,-0.05092 0.141726,-0.113392 0.198534,-0.138826 0.06284,-0.02814 0.113133,-0.07214 0.128429,-0.112372 0.02902,-0.07633 0.135119,-0.181062 0.236805,-0.233755 0.03871,-0.02006 0.07038,-0.04798 0.07038,-0.06204 0,-0.01406 0.02893,-0.03657 0.0643,-0.05001 0.03536,-0.01345 0.07752,-0.05347 0.09368,-0.08894 0.01616,-0.03547 0.04492,-0.0645 0.0639,-0.0645 0.01898,0 0.07067,-0.03455 0.114856,-0.07678 0.04419,-0.04223 0.09489,-0.07678 0.112659,-0.07678 0.01777,0 0.05943,-0.03167 0.09255,-0.07038 0.069,-0.08061 0.224486,-0.206067 0.325139,-0.262327 0.127274,-0.07114 0.373343,-0.249787 0.489331,-0.355258 0.06334,-0.0576 0.151196,-0.111657 0.195231,-0.120129 0.04527,-0.0087 0.09315,-0.03985 0.110168,-0.07166 0.01656,-0.03094 0.05091,-0.06735 0.07633,-0.08091 0.08837,-0.04714 0.245819,-0.1603162 0.333081,-0.2394105 0.04828,-0.04376 0.112201,-0.07957 0.14204,-0.07957 0.02984,0 0.0671,-0.01285 0.08281,-0.02856 0.01571,-0.01571 0.05065,-0.04162 0.07766,-0.05758 0.027,-0.01597 0.111469,-0.07061 0.187701,-0.121442 0.07623,-0.05083 0.167398,-0.101402 0.202588,-0.112388 0.03519,-0.01099 0.104036,-0.0529 0.15299,-0.09313 0.04895,-0.04024 0.10193,-0.07316 0.117725,-0.07316 0.0158,0 0.07641,-0.03455 0.134708,-0.07678 0.05829,-0.04223 0.125336,-0.07678 0.148984,-0.07678 0.02365,0 0.06413,-0.01912 0.08995,-0.0425 0.02583,-0.02338 0.05553,-0.03391 0.066,-0.02342 0.01907,0.0191 0.03309,4.2130325 0.01436,4.2925875 -0.0055,0.02323 -0.04121,0.05004 -0.07941,0.05958 -0.0382,0.0095 -0.106124,0.04523 -0.150932,0.07932 -0.04481,0.03409 -0.09473,0.06199 -0.110941,0.06199 -0.04161,0 -0.665047,0.306008 -0.738781,0.362622 -0.03357,0.02577 -0.0854,0.04706 -0.115168,0.0473 -0.02977,2.4e-4 -0.08204,0.02986 -0.116157,0.06581 -0.04074,0.04293 -0.07954,0.06078 -0.113056,0.05202 -0.03589,-0.0094 -0.08069,0.01631 -0.150999,0.08662 -0.05498,0.05498 -0.125034,0.107787 -0.155669,0.117342 -0.03064,0.0096 -0.06146,0.02526 -0.0685,0.0349 -0.02026,0.02776 -0.312991,0.180312 -0.345994,0.180312 -0.01638,0 -0.05753,0.02344 -0.09143,0.0521 -0.126646,0.107049 -0.395117,0.289532 -0.513271,0.348878 -0.06723,0.03377 -0.12874,0.07192 -0.136687,0.08478 -0.01978,0.03201 -0.226166,0.169802 -0.345555,0.23071 -0.05385,0.02747 -0.101853,0.05898 -0.10667,0.07002 -0.01497,0.0343 -0.210748,0.178351 -0.265549,0.195388 -0.02863,0.0089 -0.07247,0.05075 -0.09742,0.09299 -0.02496,0.04225 -0.06196,0.07681 -0.08224,0.07681 -0.02028,0 -0.08149,0.04031 -0.136017,0.08957 -0.05453,0.04927 -0.117392,0.08957 -0.13969,0.08957 -0.0223,0 -0.102484,0.06046 -0.178192,0.134362 -0.07571,0.0739 -0.186495,0.168198 -0.246193,0.209552 -0.0597,0.04135 -0.122076,0.09351 -0.138617,0.115901 -0.0258,0.03492 -0.236255,0.215236 -0.344516,0.295172 -0.01907,0.01408 -0.05401,0.04698 -0.07765,0.07311 -0.07917,0.08751 -0.205497,0.207524 -0.327148,0.310779 -0.06634,0.0563 -0.144705,0.127077 -0.174153,0.157274 -0.02945,0.0302 -0.10316,0.105055 -0.163803,0.166353 -0.321551,0.325016 -0.601333,0.621212 -0.721505,0.763832 -0.06334,0.07518 -0.129164,0.149169 -0.146271,0.164431 -0.01711,0.01526 -0.0459,0.04073 -0.06398,0.0566 -0.03698,0.03245 -0.08069,0.08713 -0.172498,0.215789 -0.08958,0.125541 -0.10786,0.147258 -0.186788,0.221951 -0.03876,0.03668 -0.09897,0.1137 -0.133785,0.171148 -0.03482,0.05745 -0.115391,0.156123 -0.179051,0.219277 -0.06366,0.06315 -0.115744,0.135134 -0.115744,0.159955 0,0.02482 -0.01032,0.04513 -0.02293,0.04513 -0.01261,0 -0.05834,0.05471 -0.101616,0.121566 -0.04328,0.06686 -0.104944,0.152164 -0.13703,0.189562 -0.03209,0.0374 -0.07561,0.09382 -0.09673,0.125372 -0.02111,0.03156 -0.07006,0.08636 -0.10877,0.121781 -0.03871,0.03542 -0.07038,0.08413 -0.07038,0.108228 0,0.0241 -0.01614,0.05722 -0.03588,0.0736 -0.01973,0.01638 -0.04288,0.05769 -0.05145,0.09181 -0.0086,0.03412 -0.04136,0.08907 -0.07289,0.122129 -0.05113,0.0536 -0.108061,0.139678 -0.184956,0.279621 -0.0139,0.02529 -0.0335,0.04598 -0.04357,0.04598 -0.01007,0 -0.06445,0.09501 -0.120838,0.211141 -0.05639,0.116127 -0.131794,0.244602 -0.167566,0.285501 -0.03577,0.0409 -0.06504,0.09009 -0.06504,0.109318 0,0.01923 -0.02879,0.04808 -0.06398,0.06411 -0.04422,0.02015 -0.06401,0.04962 -0.06408,0.09542 -5.3e-5,0.03645 -0.02165,0.101614 -0.04799,0.144811 -0.02634,0.0432 -0.05661,0.106001 -0.06726,0.139566 -0.01065,0.03357 -0.03513,0.07678 -0.05438,0.09604 -0.01926,0.01926 -0.03501,0.05581 -0.03501,0.08124 0,0.02542 -0.01728,0.06056 -0.03839,0.07808 -0.02111,0.01752 -0.03849,0.04485 -0.03861,0.06072 -1.6e-4,0.01587 -0.04745,0.12675 -0.105183,0.246396 -0.05773,0.119647 -0.115186,0.240573 -0.127683,0.268725 -0.0125,0.02815 -0.03258,0.06846 -0.04463,0.08957 -0.06091,0.106738 -0.336515,0.758751 -0.336515,0.796106 0,0.05675 -0.133688,0.304384 -0.164325,0.304384 -0.01796,0 -0.05092,-0.04319 -0.07327,-0.09597 z"
       id="path7" />
    <text
       xml:space="preserve"
       style="font-style:normal;font-variant:normal;font-weight:bold;font-stretch:normal;font-size:4.9389px;line-height:125%;font-family:'Nimbus Sans';-inkscape-font-specification:'Nimbus Sans Bold';letter-spacing:0px;word-spacing:0px;fill:#e7662b;fill-opacity:1;stroke:#e7662b;stroke-width:0.264583px;stroke-linecap:butt;stroke-linejoin:miter;stroke-opacity:1"
       x="5.2702861"
       y="5.9086833"
       id="text1"><tspan
         sodipodi:role="line"
         id="tspan1"
         style="font-style:normal;font-variant:normal;font-weight:bold;font-stretch:normal;font-family:Roboto;-inkscape-font-specification:'Roboto Bold';fill:#e7662b;fill-opacity:1;stroke:#e7662b;stroke-width:0.264583px;stroke-opacity:1"
         x="5.2702861"
         y="5.9086833">SOPDS NG</tspan></text>
    <text
       xml:space="preserve"
       style="font-style:normal;font-variant:normal;font-weight:bold;font-stretch:normal;font-size:4.9389px;line-height:125%;font-family:'Nimbus Sans';-inkscape-font-specification:'Nimbus Sans Bold';letter-spacing:0px;word-spacing:0px;fill:#e7662b;fill-opacity:1;stroke:#e7662b;stroke-width:0.265;stroke-linecap:butt;stroke-linejoin:miter;stroke-dasharray:none;stroke-opacity:1"
       x="6.8558946"
       y="45.208508"
       id="text2"><tspan
         sodipodi:role="line"
         id="tspan2"
         style="font-style:normal;font-variant:normal;font-weight:bold;font-stretch:normal;font-family:Roboto;-inkscape-font-specification:'Roboto Bold';fill:#e7662b;fill-opacity:1;stroke:#e7662b;stroke-width:0.265;stroke-dasharray:none;stroke-opacity:1"
         x="6.8558946"
         y="45.208508">No Cover</tspan></text>
  </g>
</svg>
