<?xml version="1.0" encoding="UTF-8" standalone="no"?>
<!-- Created with Inkscape (http://www.inkscape.org/) -->

<svg
   version="1.1"
   id="svg1"
   width="170.66667"
   height="170.66667"
   viewBox="0 0 170.66667 170.66667"
   sodipodi:docname="sopds-folder.svg"
   inkscape:version="1.4 (e7c3feb100, 2024-10-09)"
   xmlns:inkscape="http://www.inkscape.org/namespaces/inkscape"
   xmlns:sodipodi="http://sodipodi.sourceforge.net/DTD/sodipodi-0.dtd"
   xmlns="http://www.w3.org/2000/svg"
   xmlns:svg="http://www.w3.org/2000/svg">
  <defs
     id="defs1">
    <filter
       inkscape:collect="always"
       style="color-interpolation-filters:sRGB"
       id="filter2"
       x="-0.035817812"
       y="-0.042014873"
       width="1.0716356"
       height="1.0840297">
      <feGaussianBlur
         inkscape:collect="always"
         stdDeviation="0.41660555"
         id="feGaussianBlur2" />
    </filter>
  </defs>
  <sodipodi:namedview
     id="namedview1"
     pagecolor="#ffffff"
     bordercolor="#666666"
     borderopacity="1.0"
     inkscape:showpageshadow="2"
     inkscape:pageopacity="0.0"
     inkscape:pagecheckerboard="0"
     inkscape:deskcolor="#d1d1d1"
     inkscape:zoom="4"
     inkscape:cx="85.375"
     inkscape:cy="118.625"
     inkscape:window-width="1916"
     inkscape:window-height="1036"
     inkscape:window-x="0"
     inkscape:window-y="42"
     inkscape:window-maximized="1"
     inkscape:current-layer="g1" />
  <g
     inkscape:groupmode="layer"
     inkscape:label="Image"
     id="g1">
    <g
       id="Main_Path"
       style="display:inline">
      <path
         id="Main_Shadow"
         style="display:inline;fill:none;fill-opacity:1;stroke:#e7662b;stroke-width:8.52781;stroke-linecap:round;stroke-linejoin:miter;stroke-opacity:1"
         d="m 46.811256,23.763899 c -7.021595,0 -12.675397,5.677507 -12.675397,12.729808 v 5.404201 H 30.4401 c -10.485881,0 -18.926201,10.70293 -18.926201,23.998014 V 128.009 c 0,13.29509 8.44032,23.99802 18.926201,23.99802 h 104.2873 c 10.4859,0 18.92806,-10.70293 18.92806,-23.99802 V 65.895922 c 0,-13.295084 -8.44216,-23.998014 -18.92806,-23.998014 h -5.40774 v -5.404201 c 0,-7.052301 -5.6538,-12.729808 -12.6754,-12.729808 z" />
      <path
         id="External_path"
         style="display:inline;fill:none;stroke:#4c4c4c;stroke-width:8.75725;stroke-linecap:round;stroke-linejoin:miter;stroke-opacity:1;filter:url(#filter2)"
         d="m 47.738281,23.597656 c -7.417799,0 -13.390625,5.667348 -13.390625,12.707032 v 5.394531 h -3.904297 c -11.077563,0 -19.99414,10.68378 -19.99414,23.955078 v 62.001953 c 0,13.2713 8.916577,23.95508 19.99414,23.95508 H 140.61523 c 11.07757,0 19.9961,-10.68378 19.9961,-23.95508 V 65.654297 c 0,-13.271298 -8.91853,-23.955078 -19.9961,-23.955078 h -5.71289 v -5.394531 c 0,-7.039684 -5.97282,-12.707032 -13.39062,-12.707032 z" />
    </g>
    <g
       id="Folder"
       style="display:inline">
      <rect
         style="fill:none;fill-opacity:1;stroke:#e7662b;stroke-width:4.26056;stroke-linecap:round;stroke-linejoin:miter;stroke-dasharray:none;stroke-opacity:1"
         id="Folder_content"
         width="102.67178"
         height="76.171768"
         x="27.289116"
         y="58.539116"
         rx="14.626425"
         ry="13.630737" />
      <g
         id="folder_shadow">
        <rect
           style="fill:none;fill-opacity:1;stroke:#e7662b;stroke-width:4.13494;stroke-linecap:round;stroke-linejoin:miter;stroke-dasharray:none;stroke-opacity:1"
           id="Folder_content-3"
           width="96.547401"
           height="76.297386"
           x="27.567469"
           y="58.067471"
           rx="13.753957"
           ry="13.653216" />
        <rect
           style="fill:none;fill-opacity:1;stroke:#e7662b;stroke-width:4.20578;stroke-linecap:round;stroke-linejoin:miter;stroke-dasharray:none;stroke-opacity:1"
           id="Folder_content-3-6"
           width="99.976562"
           height="76.226547"
           x="27.602886"
           y="58.85289"
           rx="14.242469"
           ry="13.64054" />
      </g>
    </g>
  </g>
</svg>
